<svg width="120px" height="108px" viewBox="0 0 120 108" version="1.1" xmlns="http://www.w3.org/2000/svg" xmlns:xlink="http://www.w3.org/1999/xlink">
    <!-- Generator: Sketch 50.2 (55047) - http://www.bohemiancoding.com/sketch -->
    <title>Cannot View File</title>
    <desc>Created with Sketch.</desc>
    <defs>
        <linearGradient x1="12.2893617%" y1="94.4452378%" x2="83.3148936%" y2="14.998334%" id="linearGradient-1">
            <stop stop-color="#C1C7D0" offset="10%"></stop>
            <stop stop-color="#EBECF0" stop-opacity="0.5" offset="100%"></stop>
        </linearGradient>
        <linearGradient x1="-1.93717277%" y1="96.404276%" x2="103.848168%" y2="-99.9514091%" id="linearGradient-2">
            <stop stop-color="#A5ADBA" stop-opacity="0" offset="0%"></stop>
            <stop stop-color="#A5ADBA" stop-opacity="0.07" offset="11%"></stop>
            <stop stop-color="#A5ADBA" stop-opacity="0.24" offset="32%"></stop>
            <stop stop-color="#A5ADBA" stop-opacity="0.52" offset="60%"></stop>
            <stop stop-color="#A5ADBA" stop-opacity="0.91" offset="93%"></stop>
            <stop stop-color="#A5ADBA" offset="100%"></stop>
        </linearGradient>
    </defs>
    <g id="MVP-(Stride)" stroke="none" stroke-width="1" fill="none" fill-rule="evenodd">
        <g id="MV---preview-error---unkown" transform="translate(-660.000000, -340.000000)" fill-rule="nonzero">
            <g id="Cannot-View-File" transform="translate(660.000000, 340.000000)">
                <polygon id="Shape" fill="#E7E8EC" points="103.669787 19.7668085 103.654468 19.7668085 103.669787 19.7821277"></polygon>
                <polygon id="Shape" fill="#EBECF0" opacity="0.2" points="84.0255319 19.7821277 103.531915 19.7821277 103.669787 19.7821277 103.669787 19.7821277 103.669787 19.7821277 103.654468 19.7668085 83.8876596 0 83.8876596 0 83.8876596 19.7821277"></polygon>
                <path d="M52.5140426,54.8425532 C52.5131323,52.1924888 53.9162174,49.7402779 56.201316,48.3982025 C58.4864146,47.0561272 61.3114849,47.0250741 63.6255319,48.3165957 L53.4638298,58.4782979 C52.8411404,57.3677027 52.5140991,56.1158024 52.5140426,54.8425532 Z M59.9897872,62.2978723 C58.716538,62.2978158 57.4646377,61.9707745 56.3540426,61.3480851 L66.5157447,51.186383 C67.8072664,53.50043 67.7762133,56.3255003 66.4341379,58.6105989 C65.0920625,60.8956975 62.6398516,62.2987826 59.9897872,62.2978723 Z M79.7208511,54.0561702 C77.0819654,51.2691199 74.0426595,48.8906824 70.7029787,46.9991489 L77.106383,40.6212766 C77.9044931,39.8231664 77.9044931,38.5291741 77.1063829,37.7310639 C76.3082727,36.9329537 75.0142804,36.9329537 74.2161702,37.7310638 L66.7353191,45.2068085 C64.5741123,44.4124561 62.2922666,43.9961617 59.9897872,43.9761702 C50.5531915,43.9761702 42.5974468,51.5744681 40.2587234,54.0714894 C39.8565772,54.5029515 39.8565772,55.1719422 40.2587234,55.6034043 C42.8976091,58.3904545 45.9369149,60.768892 49.2765957,62.6604255 L42.893617,69.0638298 C42.3773302,69.5801166 42.1756972,70.332621 42.3646713,71.0378818 C42.5536454,71.7431427 43.1045168,72.2940142 43.8097777,72.4829883 C44.5150386,72.6719623 45.267543,72.4703294 45.7838298,71.9540426 L53.2595745,64.4782979 C55.4207813,65.2726503 57.702627,65.6889447 60.0051064,65.7089362 C69.4519149,65.7089362 77.3974468,58.0953191 79.7361702,55.613617 C80.1404299,55.1766965 80.1337106,54.5002929 79.7208511,54.0714894 L79.7208511,54.0561702 Z M79.0468085,91.4297872 L79.0468085,98.2161702 L103.659574,98.2161702 L103.659574,107.28 L20.7165957,107.28 L20.7165957,56.8289362 L0,56.8289362 L0,50.0425532 L30.1991489,50.0425532 L30.1991489,43.2561702 L13.5165957,43.2561702 L13.5165957,36.4748936 L2.11914894,36.4748936 L2.11914894,29.6885106 L35.3974468,29.6885106 L35.3974468,22.9021277 L20.7165957,22.9021277 L20.7165957,0 L83.8876596,0 L83.8876596,19.7821277 L103.659574,19.7821277 L103.659574,64.2995745 L117.043404,64.2995745 L117.043404,71.0859574 L103.659574,71.0859574 L103.659574,77.8723404 L91.7361702,77.8723404 L91.7361702,84.6587234 L120,84.6587234 L120,91.4451064 L79.0468085,91.4297872 Z" id="Shape" fill="url(#linearGradient-1)"></path>
                <polygon id="Shape" fill="url(#linearGradient-2)" opacity="0.6" style="mix-blend-mode: multiply;" points="84.0255319 30.2910638 103.531915 19.7821277 84.0255319 19.7821277"></polygon>
            </g>
        </g>
    </g>
</svg>
